Land_normalized_Motion_pl03
version=1
nRows=18
nColumns=43
inDegrees=yes
endheader
time		pelvis_tilt		pelvis_list		pelvis_rotation		pelvis_tx		pelvis_ty		pelvis_tz		hip_flexion_r		hip_adduction_r		hip_rotation_r		knee_angle_r		ankle_angle_r		subtalar_angle_r		mtp_angle_r		hip_flexion_l		hip_adduction_l		hip_rotation_l		knee_angle_l		ankle_angle_l		subtalar_angle_l		mtp_angle_l		lumbar_extension		lumbar_bending		lumbar_rotation		neck_flexion		neck_lateral_bending		neck_rotation		arm_flex_r		arm_add_r		arm_rot_r		elbow_flex_r		pro_sup_r		wrist_flex_r		wrist_dev_r		hand_finger_flex_r		arm_flex_l		arm_add_l		arm_rot_l		elbow_flex_l		pro_sup_l		wrist_flex_l		wrist_dev_l		hand_finger_flex_l		
3.012500		4.930680		0.548189		97.327673		-0.036079		0.933937		0.580768		33.936520		-4.260735		-12.965449		-34.799694		-16.440056		8.211521		29.657830		34.568670		-7.847604		-6.389593		-36.578681		-17.770873		3.889889		25.787672		-24.662263		6.524734		-1.808685		-23.349020		-0.741404		-3.028412		-55.930749		-16.454867		-19.477385		44.254482		123.608648		-8.747903		-6.916993		-33.110027		-75.376533		-20.932332		-29.411639		68.443139		140.122605		-10.948386		-9.471753		-21.994278		
3.015253		4.902201		0.885211		97.204697		-0.036185		0.923923		0.576888		34.269180		-4.394371		-12.935889		-36.219499		-16.522069		8.145725		29.646123		34.863434		-7.916735		-6.178204		-37.824353		-17.962912		3.925214		25.972224		-25.163172		6.524709		-1.665630		-23.298870		-0.766677		-3.013171		-55.016334		-16.425090		-19.346208		44.019940		123.502575		-8.736747		-6.808271		-33.017192		-74.150650		-20.792835		-29.266534		68.348749		139.996162		-11.031535		-9.359868		-21.876329		
3.018005		4.979935		1.033559		97.050818		-0.035640		0.913342		0.573453		34.923853		-4.353878		-12.820787		-37.684753		-16.491591		8.251301		29.617628		35.454501		-8.125894		-5.901571		-39.044440		-18.350931		4.043657		26.418720		-25.615327		6.517663		-1.587940		-22.338792		-0.830853		-3.052426		-53.838210		-16.469663		-19.056509		43.644309		123.319839		-8.995891		-6.782121		-32.898936		-72.924972		-20.647314		-29.043669		68.107498		139.691707		-11.504946		-9.244181		-21.675655		
3.020758		4.982071		1.281209		96.956674		-0.035551		0.902840		0.569811		35.438489		-4.450391		-12.767957		-39.128918		-16.716067		8.412267		29.601808		35.921816		-8.243097		-5.733114		-40.252573		-18.626099		4.157846		26.703207		-26.061671		6.511857		-1.474956		-22.027978		-0.805074		-3.053792		-52.931027		-16.481948		-18.794830		43.522552		123.272528		-9.247612		-6.903054		-32.863029		-71.762074		-20.569831		-28.833614		68.079337		139.488758		-11.927028		-9.237734		-21.607018		
3.023510		5.023417		1.384141		96.799554		-0.035188		0.891944		0.566408		36.175101		-4.474684		-12.659494		-40.547428		-16.936470		8.711540		29.576577		36.579483		-8.407732		-5.503627		-41.420571		-18.966481		4.325669		27.163066		-26.439761		6.478556		-1.367508		-21.192914		-0.801200		-3.074967		-51.843118		-16.542008		-18.442586		43.233061		123.201493		-9.713148		-7.110354		-32.823955		-70.563674		-20.490319		-28.533698		67.925987		139.162596		-12.657753		-9.248625		-21.505310		
3.026263		4.966307		1.702841		96.714905		-0.035157		0.881494		0.562780		36.612641		-4.636841		-12.567932		-41.869923		-17.176191		8.840472		29.568390		36.977234		-8.445032		-5.327551		-42.618556		-18.926329		4.391725		27.351065		-26.937932		6.430189		-1.294523		-21.172525		-0.779570		-3.053333		-50.917622		-16.543928		-18.271651		43.219837		123.189775		-9.855217		-7.213310		-32.799473		-69.378421		-20.460073		-28.329701		67.984266		139.041693		-12.908994		-9.250615		-21.469792		
3.029015		4.912021		1.710509		96.529282		-0.034836		0.870312		0.559547		37.502770		-4.746861		-12.346251		-43.245665		-17.179038		9.414479		29.547542		37.675094		-8.460039		-5.038197		-43.763050		-18.126561		4.642282		27.869753		-27.270252		6.292059		-1.217677		-20.047796		-0.806107		-3.042338		-49.730805		-16.612274		-17.957961		42.875077		123.183821		-10.375294		-7.522496		-32.788616		-68.112305		-20.452694		-27.933463		67.790572		138.734436		-13.726031		-9.270841		-21.420336		
3.031768		4.821974		1.644216		96.351299		-0.034518		0.858946		0.556308		38.512344		-4.890945		-12.047635		-44.677398		-16.664884		10.156507		29.518162		38.451953		-8.431802		-4.760867		-45.036309		-16.515990		5.112924		28.646435		-27.488652		6.107479		-1.187499		-19.144266		-0.807670		-3.006900		-48.589626		-16.696335		-17.588408		42.561258		123.140705		-11.135612		-8.025268		-32.745316		-66.878854		-20.509897		-27.387806		67.561264		138.308660		-14.906602		-9.370747		-21.280726		
3.034520		4.809105		1.436118		96.070710		-0.033955		0.847231		0.552850		39.642168		-4.924335		-11.793052		-46.122343		-15.955825		11.143655		29.470197		39.445500		-8.676398		-4.790344		-46.638426		-14.277836		6.450006		29.950400		-27.437310		5.949754		-0.953933		-18.787568		-0.835531		-2.927743		-47.669478		-16.771994		-17.047434		42.316151		122.875664		-12.290061		-8.772771		-32.436526		-65.666386		-20.688861		-26.668628		67.271639		137.546678		-16.897499		-9.592364		-20.617671		
3.037273		4.670919		1.569670		96.034082		-0.033893		0.836339		0.549641		40.336277		-5.148966		-11.423839		-47.584405		-14.279874		11.492369		29.456522		40.016453		-8.504910		-4.399075		-48.176356		-11.744823		6.682561		30.554588		-27.851350		5.813827		-1.004070		-18.200298		-0.869309		-2.875296		-46.441111		-16.817302		-16.831286		42.081069		122.722007		-12.617117		-8.871237		-32.241759		-64.287608		-20.800796		-26.246227		67.156431		137.278664		-17.512693		-9.616192		-20.218922		
3.040025		4.537168		1.701016		95.951040		-0.033846		0.825326		0.546564		41.046250		-5.353593		-11.086754		-49.229577		-12.020891		12.254133		29.461805		40.594325		-8.379326		-4.062540		-49.992854		-8.161515		7.018059		30.973268		-28.303627		5.676259		-1.038486		-17.376513		-0.866085		-2.804114		-45.294112		-16.899141		-16.622766		42.060923		122.665259		-12.940947		-9.025055		-32.176086		-62.945436		-20.853068		-25.923655		67.181442		137.143799		-18.028691		-9.689186		-20.010995		
3.042778		4.486831		1.801687		95.808207		-0.033566		0.814218		0.543474		41.779353		-5.410152		-10.743938		-51.070993		-9.264286		13.014605		29.482572		41.242226		-8.430207		-3.847972		-52.059647		-4.195914		7.625380		31.268156		-28.704754		5.567841		-0.953596		-16.623002		-0.853693		-2.708065		-44.144679		-16.980302		-16.393858		42.011766		122.599943		-13.349967		-9.211400		-32.172589		-61.552657		-20.928339		-25.594431		67.153936		137.028788		-18.642613		-9.836753		-19.878908		
3.045530		4.501169		1.867497		95.616771		-0.033091		0.803042		0.540334		42.533617		-5.358238		-10.435867		-53.107218		-6.313986		13.590957		29.517565		41.930287		-8.621195		-3.724400		-54.269465		-0.030333		8.259819		31.422782		-29.069968		5.489765		-0.776279		-15.863234		-0.832973		-2.606423		-42.991698		-17.037242		-16.139184		41.959333		122.501691		-13.808936		-9.412567		-32.210202		-60.114629		-21.027491		-25.267811		67.105610		136.922970		-19.316665		-10.061978		-19.790469		
3.048283		4.607746		1.860246		95.342439		-0.032314		0.791641		0.537245		43.379497		-5.124276		-10.149528		-55.336756		-3.564931		13.975577		29.577560		42.739433		-9.021867		-3.770695		-56.620651		4.216137		8.994713		31.321511		-29.350171		5.442605		-0.422272		-15.095812		-0.805270		-2.501197		-41.895074		-17.105090		-15.835751		41.888559		122.296540		-14.416866		-9.673317		-32.291438		-58.607494		-21.162049		-24.930378		67.012688		136.795137		-20.206417		-10.439659		-19.707221		
3.051035		4.756664		1.809882		95.024958		-0.031362		0.780185		0.534139		44.272553		-4.811155		-9.933627		-57.709761		-1.217090		13.986603		29.659642		43.631433		-9.525327		-3.924941		-59.038213		8.195685		9.672371		30.957022		-29.575203		5.399089		0.018692		-14.380555		-0.771320		-2.407864		-40.788343		-17.150542		-15.492008		41.785043		121.966819		-15.109055		-9.962436		-32.377296		-57.035680		-21.335533		-24.560816		66.845812		136.643757		-21.236160		-10.919853		-19.577667		
3.053788		4.774025		1.922554		94.880669		-0.030960		0.769413		0.531298		44.950347		-4.763536		-9.808310		-60.099373		0.829950		13.143192		29.708327		44.362990		-9.642235		-3.861615		-61.327194		11.340583		9.317446		30.743113		-30.035990		5.331618		0.099306		-13.658370		-0.659773		-2.357075		-39.399215		-17.209437		-15.343638		41.705667		121.727136		-15.451088		-10.060977		-32.421304		-55.440764		-21.489190		-24.202103		66.768113		136.609326		-21.689801		-11.205822		-19.496936		
3.056540		4.816393		1.957165		94.694753		-0.030414		0.758402		0.528644		45.772384		-4.644861		-9.731295		-62.542208		2.162897		12.112566		29.756789		45.264738		-9.805389		-3.904813		-63.659263		14.403878		8.789087		30.451973		-30.438139		5.251125		0.333047		-12.775804		-0.516313		-2.280933		-38.088479		-17.258643		-15.164324		41.639604		121.464337		-15.875689		-10.234311		-32.499939		-53.775581		-21.646935		-23.881131		66.739266		136.611614		-22.283306		-11.588778		-19.480512		
3.059293		4.839199		1.922170		94.501631		-0.029816		0.747391		0.526210		46.721782		-4.528874		-9.672753		-64.935425		2.977771		10.714151		29.803258		46.331479		-9.923484		-3.963699		-65.987995		17.011358		8.076371		30.065080		-30.789978		5.136102		0.592944		-11.871429		-0.344936		-2.212784		-36.726591		-17.284620		-14.974355		41.542803		121.161565		-16.328718		-10.440620		-32.581163		-52.035012		-21.848231		-23.537298		66.683871		136.669415		-22.948164		-12.025987		-19.491953		
